HIERARCHY
ROOT hip
{
  OFFSET 0 0 0
  CHANNELS 6 Xposition Yposition Zposition Zrotation Yrotation Xrotation
  JOINT abdomen
  {
    OFFSET 0 20.6881 -0.73152
    CHANNELS 3 Zrotation Xrotation Yrotation
    JOINT chest
    {
      OFFSET 0 11.7043 -0.48768
      CHANNELS 3 Zrotation Xrotation Yrotation
      JOINT neck
      {
        OFFSET 0 22.1894 -2.19456
        CHANNELS 3 Zrotation Xrotation Yrotation
        JOINT head
        {
          OFFSET -0.24384 7.07133 1.2192
          CHANNELS 3 Zrotation Xrotation Yrotation
          JOINT leftEye
          {
            OFFSET 4.14528 8.04674 8.04672
            CHANNELS 3 Zrotation Xrotation Yrotation
            End Site
            {
              OFFSET 1 0 0
            }
          }
          JOINT rightEye
          {
            OFFSET -3.6576 8.04674 8.04672
            CHANNELS 3 Zrotation Xrotation Yrotation
            End Site
            {
              OFFSET 1 0 0
            }
          }
        }
      }
      JOINT rCollar
      {
        OFFSET -2.68224 19.2634 -4.8768
        CHANNELS 3 Zrotation Xrotation Yrotation
        JOINT rShldr
        {
          OFFSET -8.77824 -1.95073 1.46304
          CHANNELS 3 Zrotation Xrotation Yrotation
          JOINT rForeArm
          {
            OFFSET -28.1742 -1.7115 0.48768
            CHANNELS 3 Zrotation Xrotation Yrotation
            JOINT rHand
            {
              OFFSET -22.5879 0.773209 7.07136
              CHANNELS 3 Zrotation Xrotation Yrotation
              JOINT rThumb1
              {
                OFFSET -1.2192 -0.487915 3.41376
                CHANNELS 3 Zrotation Xrotation Yrotation
                JOINT rThumb2
                {
                  OFFSET -3.37035 -0.52449 3.41376
                  CHANNELS 3 Zrotation Xrotation Yrotation
                  End Site
                  {
                    OFFSET -1.78271 -1.18214 1.43049
                  }
                }
              }
              JOINT rIndex1
              {
                OFFSET -7.75947 0.938293 5.60832
                CHANNELS 3 Zrotation Xrotation Yrotation
                JOINT rIndex2
                {
                  OFFSET -2.54057 -0.884171 1.56538
                  CHANNELS 3 Zrotation Xrotation Yrotation
                  End Site
                  {
                    OFFSET -1.62519 -0.234802 1.16502
                  }
                }
              }
              JOINT rMid1
              {
                OFFSET -8.24714 1.18213 3.41376
                CHANNELS 3 Zrotation Xrotation Yrotation
                JOINT rMid2
                {
                  OFFSET -3.10165 -0.590103 1.0647
                  CHANNELS 3 Zrotation Xrotation Yrotation
                  End Site
                  {
                    OFFSET -2.48547 -0.328903 0.83742
                  }
                }
              }
              JOINT rRing1
              {
                OFFSET -8.82822 0.546677 1.51678
                CHANNELS 3 Zrotation Xrotation Yrotation
                JOINT rRing2
                {
                  OFFSET -2.60934 -0.819778 -0.0198488
                  CHANNELS 3 Zrotation Xrotation Yrotation
                  End Site
                  {
                    OFFSET -2.33842 -0.294052 0.168128
                  }
                }
              }
              JOINT rPinky1
              {
                OFFSET -8.27202 -0.0477905 -0.4584
                CHANNELS 3 Zrotation Xrotation Yrotation
                JOINT rPinky2
                {
                  OFFSET -1.82734 -0.647385 -0.700984
                  CHANNELS 3 Zrotation Xrotation Yrotation
                  End Site
                  {
                    OFFSET -1.69225 -0.51767 -0.607171
                  }
                }
              }
            }
          }
        }
      }
      JOINT lCollar
      {
        OFFSET 2.68224 19.2634 -4.8768
        CHANNELS 3 Zrotation Xrotation Yrotation
        JOINT lShldr
        {
          OFFSET 8.77824 -1.95073 1.46304
          CHANNELS 3 Zrotation Xrotation Yrotation
          JOINT lForeArm
          {
            OFFSET 28.1742 -1.7115 0.48768
            CHANNELS 3 Zrotation Xrotation Yrotation
            JOINT lHand
            {
              OFFSET 22.5879 0.773209 7.07136
              CHANNELS 3 Zrotation Xrotation Yrotation
              JOINT lThumb1
              {
                OFFSET 1.2192 -0.487915 3.41376
                CHANNELS 3 Zrotation Xrotation Yrotation
                JOINT lThumb2
                {
                  OFFSET 3.37035 -0.52449 3.41376
                  CHANNELS 3 Zrotation Xrotation Yrotation
                  End Site
                  {
                    OFFSET 1.78271 -1.18214 1.43049
                  }
                }
              }
              JOINT lIndex1
              {
                OFFSET 7.75947 0.938293 5.60832
                CHANNELS 3 Zrotation Xrotation Yrotation
                JOINT lIndex2
                {
                  OFFSET 2.54057 -0.884171 1.56538
                  CHANNELS 3 Zrotation Xrotation Yrotation
                  End Site
                  {
                    OFFSET 1.62519 -0.234802 1.16502
                  }
                }
              }
              JOINT lMid1
              {
                OFFSET 8.24714 1.18213 3.41376
                CHANNELS 3 Zrotation Xrotation Yrotation
                JOINT lMid2
                {
                  OFFSET 3.10165 -0.590103 1.0647
                  CHANNELS 3 Zrotation Xrotation Yrotation
                  End Site
                  {
                    OFFSET 2.48547 -0.328903 0.83742
                  }
                }
              }
              JOINT lRing1
              {
                OFFSET 8.82822 0.546677 1.51678
                CHANNELS 3 Zrotation Xrotation Yrotation
                JOINT lRing2
                {
                  OFFSET 2.60934 -0.819778 -0.0198488
                  CHANNELS 3 Zrotation Xrotation Yrotation
                  End Site
                  {
                    OFFSET 2.33842 -0.294052 0.168128
                  }
                }
              }
              JOINT lPinky1
              {
                OFFSET 8.27202 -0.0477905 -0.4584
                CHANNELS 3 Zrotation Xrotation Yrotation
                JOINT lPinky2
                {
                  OFFSET 1.82734 -0.647385 -0.700984
                  CHANNELS 3 Zrotation Xrotation Yrotation
                  End Site
                  {
                    OFFSET 1.69225 -0.51767 -0.607171
                  }
                }
              }
            }
          }
        }
      }
    }
  }
  JOINT rButtock
  {
    OFFSET -8.77824 4.35084 1.2192
    CHANNELS 3 Zrotation Xrotation Yrotation
    JOINT rThigh
    {
      OFFSET 0 -1.70687 -2.19456
      CHANNELS 3 Zrotation Xrotation Yrotation
      JOINT rShin
      {
        OFFSET 0 -36.8199 0.73152
        CHANNELS 3 Zrotation Xrotation Yrotation
        JOINT rFoot
        {
          OFFSET 0.73152 -45.1104 -5.12064
          CHANNELS 3 Zrotation Xrotation Yrotation
          End Site
          {
            OFFSET -1.1221 -3.69964 12.103
          }
        }
      }
    }
  }
  JOINT lButtock
  {
    OFFSET 8.77824 4.35084 1.2192
    CHANNELS 3 Zrotation Xrotation Yrotation
    JOINT lThigh
    {
      OFFSET 0 -1.70687 -2.19456
      CHANNELS 3 Zrotation Xrotation Yrotation
      JOINT lShin
      {
        OFFSET 0 -36.8199 0.73152
        CHANNELS 3 Zrotation Xrotation Yrotation
        JOINT lFoot
        {
          OFFSET -0.73152 -45.1104 -5.12064
          CHANNELS 3 Zrotation Xrotation Yrotation
          End Site
          {
            OFFSET 1.1221 -3.69964 12.103
          }
        }
      }
    }
  }
}
MOTION
Frames:	4
Frame Time:	0.00833333
107.404 84.5294 7.58887 0.0 0.0 0.0 -0.76934 -0.00386038 -0.0215832 -0.212071 -0.00504136 -0.0367436 2.64596e-15 0.0 6.21202e-17 7.80851e-15 3.18055e-15 1.45982e-16 -0.0 0.0 0.0 -0.0 0.0 0.0 1.34054e-15 4.46489e-18 1.98785e-16 2.86011e-14 2.04997e-16 1.39149e-15 4.7604e-13 -1.37559e-13 3.18055e-15 5.41037e-12 1.6191e-13 1.52667e-13 1.2766e-11 5.0881e-14 3.62583e-13 2.20408e-11 8.5875e-14 6.20208e-13 1.27727e-11 5.28767e-14 3.56222e-13 7.73091 5.47488 0.417314 1.27661e-11 5.09883e-14 3.59403e-13 2.90554 0.965183 0.102902 1.27734e-11 5.11871e-14 3.57812e-13 10.2786 0.731801 0.0259123 1.27638e-11 5.1684e-14 3.65764e-13 2.22167 -0.733487 -0.20892 1.14435e-15 4.27076e-18 -1.98785e-16 2.58857e-14 4.09993e-16 1.98785e-16 4.69579e-13 1.45709e-13 1.90833e-14 5.40471e-12 -1.23868e-13 1.52667e-13 1.2749e-11 4.21813e-14 3.56222e-13 2.20297e-11 7.31528e-14 6.21798e-13 1.27461e-11 4.25399e-14 3.59403e-13 -7.73091 5.47488 -0.417314 1.2748e-11 4.24405e-14 3.53042e-13 -2.90554 0.965183 -0.102902 1.27427e-11 4.2043e-14 3.56222e-13 -10.2786 0.731801 -0.0259123 1.27524e-11 4.25399e-14 3.4668e-13 -2.22167 -0.733487 0.20892 -2.03217e-16 0.0 -3.88251e-19 -0.0539982 -2.09675 -0.0177066 -0.00903953 -1.7549 -0.0760372 -0.528842 3.85119 0.139763 2.03217e-16 0.0 3.88251e-19 -1.11496 -4.98913 0.0938618 0.00115205 3.48416 -0.00506552 0.537101 1.50464 -0.0922919
101.104 82.8399 1.22892 28.7041 -86.9432 -26.6043 -1.28336 -1.49193 -0.995936 0.274775 2.50332 -0.351013 -1.63939 3.47572 0.464542 1.05307 0.382778 0.578954 -0.0 0.0 0.0 -0.0 0.0 0.0 -2.39202e-15 2.22566e-13 -1.65861e-15 20.8128 11.4012 1.35798 -10.2274 -7.09037 12.4501 0.0311911 -4.04889 -0.564354 5.49463e-11 -1.20994e-10 1.29244e-10 9.30828e-11 -2.09822e-10 2.23884e-10 5.49523e-11 -1.20992e-10 1.29235e-10 7.73091 5.47488 0.417314 5.4946e-11 -1.20993e-10 1.2924e-10 2.90554 0.965183 0.102902 5.49531e-11 -1.20993e-10 1.2924e-10 10.2786 0.731801 0.0259123 5.4944e-11 -1.20992e-10 1.29248e-10 2.22167 -0.733487 -0.20892 -2.51486e-15 2.22564e-13 -2.03133e-15 -22.5945 6.03614 -1.3761 10.1516 -7.01343 -12.4016 -0.0195565 3.10286 -0.433771 2.02454e-10 -1.09073e-10 -6.49086e-11 3.49105e-10 -1.8912e-10 -1.13994e-10 2.02452e-10 -1.0907e-10 -6.49054e-11 -7.73091 5.47488 -0.417314 2.02454e-10 -1.0907e-10 -6.49119e-11 -2.90554 0.965183 -0.102902 2.02447e-10 -1.09071e-10 -6.49087e-11 -10.2786 0.731801 -0.0259123 2.02456e-10 -1.09072e-10 -6.49156e-11 -2.22167 -0.733487 0.20892 -2.03217e-16 0.0 -3.88251e-19 -2.9156 -5.72115 0.743367 0.0418765 7.96891 0.122735 -1.41544 -3.13614 -6.3692 2.03217e-16 0.0 3.88251e-19 1.59855 -7.70528 0.388424 -0.0242766 11.287 -0.159502 1.51339 -5.72 6.57309
101.108 82.8407 1.2549 30.9479 -86.8952 -28.83 -1.88098 -3.06327 -2.02848 0.818385 5.1533 -0.685233 -3.43219 7.14856 0.962331 2.15647 0.790149 1.19268 -0.0 0.0 0.0 -0.0 0.0 0.0 -5.93241e-15 4.34087e-13 -3.35449e-15 42.181 23.4663 2.98213 -17.7262 -13.4661 26.1892 -0.0253771 -8.44526 -1.18717 9.5047e-11 -2.55186e-10 2.72269e-10 1.6032e-10 -4.42543e-10 4.71651e-10 9.50524e-11 -2.55185e-10 2.72257e-10 7.73091 5.47488 0.417314 9.50463e-11 -2.55185e-10 2.72266e-10 2.90554 0.965183 0.102902 9.50532e-11 -2.55185e-10 2.72266e-10 10.2786 0.731801 0.0259123 9.50449e-11 -2.55184e-10 2.72274e-10 2.22167 -0.733487 -0.20892 -5.97641e-15 4.34084e-13 -3.70236e-15 -46.1576 12.4054 -2.88044 17.6156 -13.3234 -26.0706 0.0111473 6.38352 -0.89673 4.12311e-10 -2.31318e-10 -1.39326e-10 7.10928e-10 -4.01087e-10 -2.44653e-10 4.12311e-10 -2.31314e-10 -1.39323e-10 -7.73091 5.47488 -0.417314 4.12312e-10 -2.31314e-10 -1.3933e-10 -2.90554 0.965183 -0.102902 4.12304e-10 -2.31314e-10 -1.39327e-10 -10.2786 0.731801 -0.0259123 4.12313e-10 -2.31317e-10 -1.39331e-10 -2.22167 -0.733487 0.20892 -2.03217e-16 0.0 -3.88251e-19 -5.83418 -9.55019 1.56294 0.0193402 18.2484 0.347921 -4.08684 -10.2789 -13.4511 2.03217e-16 0.0 3.88251e-19 4.49817 -10.5759 0.704699 -0.00284704 19.5356 -0.33571 4.39799 -13.0545 13.9178
101.105 82.8426 1.2482 30.654 -86.9197 -28.5513 -2.46356 -4.46283 -2.95259 1.33164 7.51908 -0.987034 -5.08966 10.4244 1.41441 3.136 1.14786 1.73717 -0.0 0.0 0.0 -0.0 0.0 0.0 -9.85712e-15 6.67689e-13 -5.3734e-15 60.5327 34.1183 4.82559 -21.8275 -17.2216 39.1194 -0.150334 -12.1419 -1.72749 1.39307e-10 -3.63084e-10 3.87006e-10 2.35167e-10 -6.29639e-10 6.70413e-10 1.39312e-10 -3.63082e-10 3.86992e-10 7.73091 5.47488 0.417314 1.39306e-10 -3.63082e-10 3.87003e-10 2.90554 0.965183 0.102902 1.39312e-10 -3.63081e-10 3.87004e-10 10.2786 0.731801 0.0259123 1.39305e-10 -3.6308e-10 3.87012e-10 2.22167 -0.733487 -0.20892 -9.83328e-15 6.67684e-13 -5.69642e-15 -66.8761 18.0655 -4.31867 21.7309 -17.0671 -38.9322 0.0838631 9.30642 -1.31674 5.81863e-10 -3.27302e-10 -1.95438e-10 1.00325e-09 -5.67506e-10 -3.43224e-10 5.81864e-10 -3.27296e-10 -1.95435e-10 -7.73091 5.47488 -0.417314 5.81865e-10 -3.27296e-10 -1.95442e-10 -2.90554 0.965183 -0.102902 5.81856e-10 -3.27296e-10 -1.95439e-10 -10.2786 0.731801 -0.0259123 5.81865e-10 -3.27301e-10 -1.9544e-10 -2.22167 -0.733487 0.20892 -2.03217e-16 0.0 -3.88251e-19 -8.3433 -12.9612 2.31335 -0.0778932 27.4154 0.582019 -8.00501 -16.171 -20.1891 2.03217e-16 0.0 3.88251e-19 7.11152 -13.1362 0.993745 0.0646856 26.892 -0.514811 8.63395 -19.0345 21.0032
